<?xml version="1.0" standalone="no"?>
<!DOCTYPE svg PUBLIC "-//W3C//DTD SVG 20010904//EN"
 "http://www.w3.org/TR/2001/REC-SVG-20010904/DTD/svg10.dtd">
<svg version="1.0" xmlns="http://www.w3.org/2000/svg"
 width="468pt" height="468pt" viewBox="0 0 468 468"
 preserveAspectRatio="xMidYMid meet">
<metadata>
Created by potrace 1.7, written by Peter Selinger 2001-2005
</metadata>
<g transform="translate(0,468) scale(0.234000,-0.234000)"
fill="#000000" stroke="none">
<path d="M992 1848 c-9 -9 -12 -69 -12 -208 0 -173 -2 -204 -21 -256 -18 -52
-20 -79 -17 -216 l2 -158 -33 -34 c-23 -24 -36 -49 -41 -78 -4 -24 -14 -78
-21 -122 l-13 -78 -153 -146 c-84 -80 -153 -150 -153 -155 0 -5 -11 -22 -25
-39 -18 -21 -25 -41 -25 -73 0 -77 58 -88 71 -13 3 19 15 45 27 58 12 13 22
28 22 33 0 5 69 76 153 158 l153 148 13 78 c7 43 17 97 21 121 4 24 15 51 24
60 21 21 27 13 57 -78 34 -99 101 -182 160 -195 16 -4 29 -10 29 -15 0 -4 8
-10 18 -12 10 -3 34 -27 52 -54 31 -46 33 -56 37 -149 5 -120 13 -144 64 -190
42 -37 58 -42 77 -23 19 19 14 46 -14 64 -39 26 -54 65 -54 142 0 129 -8 155
-62 217 -31 34 -70 65 -104 81 -64 30 -105 79 -129 154 -10 30 -27 72 -37 94
-36 71 -48 129 -48 232 0 75 5 116 20 159 18 51 20 84 20 270 0 210 -4 235
-35 235 -6 0 -16 -5 -23 -12z"/>
</g>
</svg>
